<mxfile host="app.diagrams.net" modified="2021-07-04T16:24:53.264Z" agent="5.0 (Windows)" etag="pl3UqXdV-kFc6VtVlD0B" version="14.8.4" type="github">
  <diagram id="Uovg6YuSNLJKUb7I6Q6U" name="Page-1">
    <mxGraphModel dx="1422" dy="751" grid="1" gridSize="10" guides="1" tooltips="1" connect="1" arrows="1" fold="1" page="1" pageScale="1" pageWidth="827" pageHeight="1169" math="0" shadow="0">
      <root>
        <mxCell id="0" />
        <mxCell id="1" parent="0" />
        <mxCell id="C6QmBlAjUVIIRl9YRSYg-1" style="edgeStyle=orthogonalEdgeStyle;rounded=0;orthogonalLoop=1;jettySize=auto;html=1;exitX=1;exitY=0.5;exitDx=0;exitDy=0;entryX=0;entryY=0.5;entryDx=0;entryDy=0;strokeWidth=3;" edge="1" parent="1" source="C6QmBlAjUVIIRl9YRSYg-2" target="C6QmBlAjUVIIRl9YRSYg-4">
          <mxGeometry relative="1" as="geometry" />
        </mxCell>
        <mxCell id="C6QmBlAjUVIIRl9YRSYg-2" value="&lt;font style=&quot;font-size: 15px&quot;&gt;Annotated Corpus&lt;/font&gt;" style="ellipse;whiteSpace=wrap;html=1;aspect=fixed;strokeWidth=2;fillColor=#fff2cc;strokeColor=#d6b656;" vertex="1" parent="1">
          <mxGeometry x="40" y="400" width="80" height="80" as="geometry" />
        </mxCell>
        <mxCell id="C6QmBlAjUVIIRl9YRSYg-3" style="edgeStyle=orthogonalEdgeStyle;rounded=0;orthogonalLoop=1;jettySize=auto;html=1;exitX=1;exitY=0.5;exitDx=0;exitDy=0;entryX=0;entryY=0.5;entryDx=0;entryDy=0;strokeWidth=3;" edge="1" parent="1" source="C6QmBlAjUVIIRl9YRSYg-4" target="C6QmBlAjUVIIRl9YRSYg-6">
          <mxGeometry relative="1" as="geometry" />
        </mxCell>
        <mxCell id="C6QmBlAjUVIIRl9YRSYg-4" value="&lt;font style=&quot;font-size: 15px&quot;&gt;Embedding Layer&lt;/font&gt;" style="rounded=1;whiteSpace=wrap;html=1;strokeWidth=2;fillColor=#f5f5f5;strokeColor=#666666;fontColor=#333333;" vertex="1" parent="1">
          <mxGeometry x="200" y="280" width="80" height="320" as="geometry" />
        </mxCell>
        <mxCell id="C6QmBlAjUVIIRl9YRSYg-5" style="edgeStyle=orthogonalEdgeStyle;rounded=0;orthogonalLoop=1;jettySize=auto;html=1;exitX=1;exitY=0.5;exitDx=0;exitDy=0;strokeWidth=3;" edge="1" parent="1" source="C6QmBlAjUVIIRl9YRSYg-6" target="C6QmBlAjUVIIRl9YRSYg-8">
          <mxGeometry relative="1" as="geometry" />
        </mxCell>
        <mxCell id="C6QmBlAjUVIIRl9YRSYg-6" value="&lt;font style=&quot;font-size: 15px&quot;&gt;Spacial-Dropout1D Layer&lt;/font&gt;" style="rounded=0;whiteSpace=wrap;html=1;strokeWidth=2;dashed=1;" vertex="1" parent="1">
          <mxGeometry x="320" y="280" width="80" height="320" as="geometry" />
        </mxCell>
        <mxCell id="C6QmBlAjUVIIRl9YRSYg-7" style="edgeStyle=orthogonalEdgeStyle;rounded=0;orthogonalLoop=1;jettySize=auto;html=1;exitX=1.017;exitY=0.525;exitDx=0;exitDy=0;exitPerimeter=0;strokeWidth=3;" edge="1" parent="1" source="C6QmBlAjUVIIRl9YRSYg-8" target="C6QmBlAjUVIIRl9YRSYg-10">
          <mxGeometry relative="1" as="geometry">
            <Array as="points">
              <mxPoint x="562" y="440" />
            </Array>
          </mxGeometry>
        </mxCell>
        <mxCell id="C6QmBlAjUVIIRl9YRSYg-8" value="&lt;font style=&quot;font-size: 15px&quot;&gt;Bi-LSTM Layer&lt;/font&gt;" style="shape=cube;whiteSpace=wrap;html=1;boundedLbl=1;backgroundOutline=1;darkOpacity=0.05;darkOpacity2=0.1;strokeWidth=2;" vertex="1" parent="1">
          <mxGeometry x="440" y="400" width="120" height="80" as="geometry" />
        </mxCell>
        <mxCell id="C6QmBlAjUVIIRl9YRSYg-9" style="edgeStyle=orthogonalEdgeStyle;rounded=0;orthogonalLoop=1;jettySize=auto;html=1;exitX=1;exitY=0.5;exitDx=0;exitDy=0;entryX=0;entryY=0.5;entryDx=0;entryDy=0;strokeWidth=3;" edge="1" parent="1" source="C6QmBlAjUVIIRl9YRSYg-10" target="C6QmBlAjUVIIRl9YRSYg-11">
          <mxGeometry relative="1" as="geometry" />
        </mxCell>
        <mxCell id="C6QmBlAjUVIIRl9YRSYg-10" value="&lt;font style=&quot;font-size: 15px&quot;&gt;Dense Layer&lt;/font&gt;" style="rounded=0;whiteSpace=wrap;html=1;strokeWidth=2;fillColor=#f5f5f5;strokeColor=#666666;fontColor=#333333;" vertex="1" parent="1">
          <mxGeometry x="600" y="280" width="80" height="320" as="geometry" />
        </mxCell>
        <mxCell id="C6QmBlAjUVIIRl9YRSYg-11" value="&lt;font style=&quot;font-size: 15px&quot;&gt;Sentiment prediction&lt;/font&gt;" style="rhombus;whiteSpace=wrap;html=1;strokeWidth=2;fillColor=#d5e8d4;strokeColor=#82b366;" vertex="1" parent="1">
          <mxGeometry x="720" y="385" width="110" height="110" as="geometry" />
        </mxCell>
        <mxCell id="C6QmBlAjUVIIRl9YRSYg-12" value="" style="curved=1;endArrow=classic;html=1;strokeWidth=3;entryX=-0.017;entryY=0.475;entryDx=0;entryDy=0;entryPerimeter=0;fillColor=#f5f5f5;strokeColor=#666666;" edge="1" parent="1" target="C6QmBlAjUVIIRl9YRSYg-8">
          <mxGeometry width="50" height="50" relative="1" as="geometry">
            <mxPoint x="560" y="420" as="sourcePoint" />
            <mxPoint x="420" y="410" as="targetPoint" />
            <Array as="points">
              <mxPoint x="580" y="400" />
              <mxPoint x="550" y="350" />
              <mxPoint x="438" y="350" />
              <mxPoint x="410" y="410" />
            </Array>
          </mxGeometry>
        </mxCell>
        <mxCell id="C6QmBlAjUVIIRl9YRSYg-13" value="&lt;font color=&quot;#595959&quot;&gt;Recurrent connection&lt;/font&gt;" style="text;html=1;strokeColor=none;fillColor=none;align=center;verticalAlign=middle;whiteSpace=wrap;rounded=0;dashed=1;" vertex="1" parent="1">
          <mxGeometry x="470" y="320" width="40" height="20" as="geometry" />
        </mxCell>
        <mxCell id="C6QmBlAjUVIIRl9YRSYg-14" value="" style="rounded=0;whiteSpace=wrap;html=1;dashed=1;strokeWidth=2;fillColor=none;strokeColor=none;" vertex="1" parent="1">
          <mxGeometry x="30" y="270" width="830" height="420" as="geometry" />
        </mxCell>
        <mxCell id="C6QmBlAjUVIIRl9YRSYg-17" value="" style="endArrow=classic;html=1;strokeWidth=2;" edge="1" parent="1">
          <mxGeometry width="50" height="50" relative="1" as="geometry">
            <mxPoint x="440" y="640" as="sourcePoint" />
            <mxPoint x="560" y="640" as="targetPoint" />
          </mxGeometry>
        </mxCell>
        <mxCell id="C6QmBlAjUVIIRl9YRSYg-18" value="linear forward and backward passage through time" style="text;html=1;align=center;verticalAlign=middle;resizable=0;points=[];autosize=1;strokeColor=none;" vertex="1" parent="1">
          <mxGeometry x="355" y="660" width="290" height="20" as="geometry" />
        </mxCell>
        <mxCell id="C6QmBlAjUVIIRl9YRSYg-19" value="LSTM" style="text;html=1;align=center;verticalAlign=middle;resizable=0;points=[];autosize=1;strokeColor=none;" vertex="1" parent="1">
          <mxGeometry x="475" y="610" width="50" height="20" as="geometry" />
        </mxCell>
        <mxCell id="C6QmBlAjUVIIRl9YRSYg-20" value="" style="endArrow=classic;html=1;strokeWidth=2;" edge="1" parent="1">
          <mxGeometry width="50" height="50" relative="1" as="geometry">
            <mxPoint x="560" y="650" as="sourcePoint" />
            <mxPoint x="440" y="650" as="targetPoint" />
          </mxGeometry>
        </mxCell>
      </root>
    </mxGraphModel>
  </diagram>
</mxfile>
